<mxfile host="app.diagrams.net" modified="2023-10-22T13:18:34.185Z" agent="Mozilla/5.0 (Windows NT 10.0; Win64; x64) AppleWebKit/537.36 (KHTML, like Gecko) Chrome/118.0.0.0 Safari/537.36 Edg/118.0.2088.46" version="22.0.6" etag="gW0SXFyW827xR0S7GIsZ" type="github">
  <diagram name="Page-1" id="GHZilAtyq1AIUW6P9Z6a">
    <mxGraphModel>
      <root>
        <mxCell id="0" />
        <mxCell id="1" parent="0" />
      </root>
    </mxGraphModel>
  </diagram>
</mxfile>
